<svg xmlns="http://www.w3.org/2000/svg" width="22.809" height="15.305" viewBox="0 0 22.809 15.305">
  <g id="グループ_2336" data-name="グループ 2336" transform="translate(-0.381 -3.319)">
    <path id="パス_2310" data-name="パス 2310" d="M2,7.97A13.664,13.664,0,0,0,.381,10.147l1.307.734.609.345A12.967,12.967,0,0,1,4.813,8.271l.047-.038-1.85-1.3C2.658,7.263,2.32,7.607,2,7.97Z" fill="#707070"/>
    <path id="パス_2311" data-name="パス 2311" d="M7.765,6.365a9.977,9.977,0,0,1,8.119.037,12.3,12.3,0,0,1,4.048,3.031,13.357,13.357,0,0,1,1.024,1.3c.112.163.2.293.248.378l.057.094.01.018.433-.244-.087.05,1.573-.882a14.87,14.87,0,0,0-2.851-3.413A13.894,13.894,0,0,0,16.79,4.395a12.173,12.173,0,0,0-10.009,0,14.469,14.469,0,0,0-1.772,1L6.96,6.764Q7.355,6.549,7.765,6.365Z" fill="#707070"/>
    <path id="パス_2312" data-name="パス 2312" d="M7.937,12.408a3.84,3.84,0,0,0,6.636,2.64L8.36,10.689A3.8,3.8,0,0,0,7.937,12.408Z" fill="#707070"/>
    <path id="パス_2313" data-name="パス 2313" d="M15.633,12.409A3.848,3.848,0,0,0,11.786,8.56h0a3.806,3.806,0,0,0-1.688.406l5.495,3.855A3.732,3.732,0,0,0,15.633,12.409Z" fill="#707070"/>
    <path id="パス_2314" data-name="パス 2314" d="M15.5,13.366,9.612,9.236,6.489,7.044,4.563,5.693,1.906,3.829,1.1,4.982,3.4,6.6,5.261,7.9,8.6,10.248l6.29,4.414,5.647,3.962.809-1.153Z" fill="#707070"/>
  </g>
</svg>
