<svg xmlns="http://www.w3.org/2000/svg" width="22.809" height="12.938" viewBox="0 0 22.809 12.938">
  <defs>
    <style>
      .cls-1 {
        fill: #707070;
      }
    </style>
  </defs>
  <g id="目のの無料アイコン7" transform="translate(0 -128.886)">
    <path id="パス_2158" data-name="パス 2158" class="cls-1" d="M22.809,135.714a14.872,14.872,0,0,0-2.851-3.413,13.878,13.878,0,0,0-3.549-2.339,12.172,12.172,0,0,0-10.009,0,14.493,14.493,0,0,0-4.781,3.575A13.629,13.629,0,0,0,0,135.714l1.307.734.609.345v0h0a12.969,12.969,0,0,1,2.516-2.955,11.585,11.585,0,0,1,2.952-1.906,9.974,9.974,0,0,1,8.119.037A12.309,12.309,0,0,1,19.551,135a13.273,13.273,0,0,1,1.024,1.3c.112.163.2.293.248.378l.057.094.011.02,0,0,.432-.246-.434.244Z"/>
    <path id="パス_2159" data-name="パス 2159" class="cls-1" d="M173.459,210.339a3.848,3.848,0,1,0,3.848,3.849A3.848,3.848,0,0,0,173.459,210.339Z" transform="translate(-162.055 -76.212)"/>
  </g>
</svg>
